<?xml version="1.0" encoding="UTF-8" standalone="no"?>
<!-- Created with Inkscape (http://www.inkscape.org/) -->

<svg
   xmlns:dc="http://purl.org/dc/elements/1.1/"
   xmlns:cc="http://creativecommons.org/ns#"
   xmlns:rdf="http://www.w3.org/1999/02/22-rdf-syntax-ns#"
   xmlns:svg="http://www.w3.org/2000/svg"
   xmlns="http://www.w3.org/2000/svg"
   xmlns:sodipodi="http://sodipodi.sourceforge.net/DTD/sodipodi-0.dtd"
   xmlns:inkscape="http://www.inkscape.org/namespaces/inkscape"
   width="1024"
   height="1024"
   id="svg2"
   version="1.1"
   inkscape:version="0.48.2 r9819"
   sodipodi:docname="dado.svg"
   inkscape:export-filename="/mnt/cursos/VB-NET/clase0/bdAzar/miscelanea/dado16.png"
   inkscape:export-xdpi="1.41"
   inkscape:export-ydpi="1.41">
  <defs
     id="defs4" />
  <sodipodi:namedview
     id="base"
     pagecolor="#ffffff"
     bordercolor="#666666"
     borderopacity="1.0"
     inkscape:pageopacity="0.0"
     inkscape:pageshadow="2"
     inkscape:zoom="0.49497475"
     inkscape:cx="294.36907"
     inkscape:cy="355.6189"
     inkscape:document-units="px"
     inkscape:current-layer="layer2"
     showgrid="false"
     inkscape:snap-global="true"
     inkscape:window-width="1587"
     inkscape:window-height="1026"
     inkscape:window-x="178"
     inkscape:window-y="114"
     inkscape:window-maximized="0" />
  <metadata
     id="metadata7">
    <rdf:RDF>
      <cc:Work
         rdf:about="">
        <dc:format>image/svg+xml</dc:format>
        <dc:type
           rdf:resource="http://purl.org/dc/dcmitype/StillImage" />
        <dc:title></dc:title>
      </cc:Work>
    </rdf:RDF>
  </metadata>
  <g
     inkscape:groupmode="layer"
     id="layer2"
     inkscape:label="Capa"
     style="display:inline"
     transform="translate(0,-28.362183)">
    <path
       style="fill:#f9f9f9;fill-opacity:1;stroke:#000000;stroke-width:12;stroke-linecap:butt;stroke-linejoin:round;stroke-miterlimit:4;stroke-opacity:1;stroke-dasharray:none"
       d="M 131.38653,267.99817 412.82197,527.37001 912.36986,258.09849 587.71398,54.164898 z"
       id="path2997"
       inkscape:connector-curvature="0"
       sodipodi:nodetypes="ccccc" />
    <path
       style="fill:#999999;fill-opacity:1;stroke:#000000;stroke-width:12;stroke-linecap:butt;stroke-linejoin:round;stroke-miterlimit:4;stroke-opacity:1;stroke-dasharray:none"
       d="M 131.38653,267.99817 412.82197,527.37001 414.83222,1026.3144 147.46853,721.40392 z"
       id="path2997-6"
       inkscape:connector-curvature="0"
       sodipodi:nodetypes="ccccc" />
    <path
       style="fill:#cccccc;fill-opacity:1;stroke:#000000;stroke-width:12;stroke-linecap:butt;stroke-linejoin:round;stroke-miterlimit:4;stroke-opacity:1;stroke-dasharray:none"
       d="M 913.37499,258.09847 412.82197,527.37001 414.83222,1026.3144 891.26219,751.10297 z"
       id="path2997-6-6"
       inkscape:connector-curvature="0"
       sodipodi:nodetypes="ccccc" />
  </g>
  <g
     inkscape:groupmode="layer"
     id="layer3"
     inkscape:label="Capa#1"
     transform="translate(0,-28.362183)">
    <path
       sodipodi:type="arc"
       style="fill:#000000;fill-rule:evenodd;stroke:none"
       id="path3804"
       sodipodi:cx="273.57144"
       sodipodi:cy="339.50504"
       sodipodi:rx="42.142857"
       sodipodi:ry="42.142857"
       d="m 315.7143,339.50504 a 42.142857,42.142857 0 1 1 -84.28571,0 42.142857,42.142857 0 1 1 84.28571,0 z"
       transform="matrix(1.6258865,-0.35318942,0.52359058,1.3461241,-172.18064,4.6217706)" />
    <path
       sodipodi:type="arc"
       style="fill:#000000;fill-rule:evenodd;stroke:none"
       id="path3808"
       sodipodi:cx="273.57144"
       sodipodi:cy="339.50504"
       sodipodi:rx="42.142857"
       sodipodi:ry="42.142857"
       d="m 315.7143,339.50504 a 42.142857,42.142857 0 1 1 -84.28571,0 42.142857,42.142857 0 1 1 84.28571,0 z"
       transform="matrix(1.2402239,0.7664002,0,1.5881186,-75.226607,-115.54275)" />
    <path
       transform="matrix(1.3952519,-0.35821687,0,1.4799281,176.3617,203.91476)"
       d="m 315.7143,339.50504 a 42.142857,42.142857 0 1 1 -84.28571,0 42.142857,42.142857 0 1 1 84.28571,0 z"
       sodipodi:ry="42.142857"
       sodipodi:rx="42.142857"
       sodipodi:cy="339.50504"
       sodipodi:cx="273.57144"
       id="path3810"
       style="fill:#000000;fill-rule:evenodd;stroke:none"
       sodipodi:type="arc" />
    <path
       sodipodi:type="arc"
       style="fill:#000000;fill-rule:evenodd;stroke:none"
       id="path3820"
       sodipodi:cx="273.57144"
       sodipodi:cy="339.50504"
       sodipodi:rx="42.142857"
       sodipodi:ry="42.142857"
       d="m 315.7143,339.50504 a 42.142857,42.142857 0 1 1 -84.28571,0 42.142857,42.142857 0 1 1 84.28571,0 z"
       transform="matrix(1.3952519,-0.35821687,0,1.4799281,379.39725,96.008152)" />
    <path
       transform="matrix(1.3952519,-0.35821687,0,1.4799281,183.39758,381.1192)"
       d="m 315.7143,339.50504 a 42.142857,42.142857 0 1 1 -84.28571,0 42.142857,42.142857 0 1 1 84.28571,0 z"
       sodipodi:ry="42.142857"
       sodipodi:rx="42.142857"
       sodipodi:cy="339.50504"
       sodipodi:cx="273.57144"
       id="path3822"
       style="fill:#000000;fill-rule:evenodd;stroke:none"
       sodipodi:type="arc" />
    <path
       sodipodi:type="arc"
       style="fill:#000000;fill-rule:evenodd;stroke:none"
       id="path3824"
       sodipodi:cx="273.57144"
       sodipodi:cy="339.50504"
       sodipodi:rx="42.142857"
       sodipodi:ry="42.142857"
       d="m 315.7143,339.50504 a 42.142857,42.142857 0 1 1 -84.28571,0 42.142857,42.142857 0 1 1 84.28571,0 z"
       transform="matrix(1.3952519,-0.35821687,0,1.4799281,383.41777,270.24269)" />
    <path
       transform="matrix(1.4443169,-0.3293488,0.46511902,1.2552595,21.978692,-151.22568)"
       d="m 315.7143,339.50504 a 42.142857,42.142857 0 1 1 -84.28571,0 42.142857,42.142857 0 1 1 84.28571,0 z"
       sodipodi:ry="42.142857"
       sodipodi:rx="42.142857"
       sodipodi:cy="339.50504"
       sodipodi:cx="273.57144"
       id="path3847"
       style="fill:#000000;fill-rule:evenodd;stroke:none"
       sodipodi:type="arc" />
  </g>
</svg>
